<svg width="200" height="200" viewBox="0 0 200 200" fill="none" xmlns="http://www.w3.org/2000/svg">
<circle cx="100" cy="100" r="100" fill="#111111"/>
<path d="M100.547 142.362C100.215 142.58 99.7851 142.58 99.4526 142.362L53.4046 112.239C53.072 112.022 52.6422 112.022 52.3097 112.239L46.2793 116.184C45.6759 116.579 45.6758 117.463 46.2793 117.858L99.4526 152.642C99.7851 152.859 100.215 152.859 100.547 152.642L153.721 117.858C154.324 117.463 154.324 116.579 153.721 116.184L147.69 112.239C147.358 112.022 146.928 112.022 146.595 112.239L100.547 142.362Z" fill="url(#paint0_linear_1087_4)"/>
<path fill-rule="evenodd" clip-rule="evenodd" d="M153.721 82.8157C154.324 82.421 154.324 81.5367 153.721 81.142L100.547 46.3581C100.215 46.1406 99.7851 46.1406 99.4526 46.3581L46.2793 81.142C45.6759 81.5367 45.6758 82.421 46.2793 82.8157L99.4526 117.6C99.7851 117.817 100.215 117.817 100.547 117.6L153.721 82.8157Z" fill="url(#paint1_linear_1087_4)"/>
<path d="M99.4526 124.841C99.7851 125.059 100.215 125.059 100.547 124.841L146.595 94.7183C146.928 94.5008 147.358 94.5008 147.69 94.7183L153.721 98.6632C154.324 99.0579 154.324 99.9421 153.721 100.337L100.547 135.121C100.215 135.338 99.7851 135.338 99.4526 135.121L46.2793 100.337C45.6759 99.9421 45.6759 99.0579 46.2793 98.6632L52.3097 94.7183C52.6423 94.5008 53.072 94.5008 53.4046 94.7183L99.4526 124.841Z" fill="url(#paint2_linear_1087_4)"/>
<defs>
<linearGradient id="paint0_linear_1087_4" x1="46.1449" y1="104.516" x2="157.863" y2="104.557" gradientUnits="userSpaceOnUse">
<stop stop-color="#06FDD8"/>
<stop offset="1" stop-color="#0E9AFF"/>
</linearGradient>
<linearGradient id="paint1_linear_1087_4" x1="46.1449" y1="104.516" x2="157.863" y2="104.557" gradientUnits="userSpaceOnUse">
<stop stop-color="#06FDD8"/>
<stop offset="1" stop-color="#0E9AFF"/>
</linearGradient>
<linearGradient id="paint2_linear_1087_4" x1="46.1449" y1="104.516" x2="157.863" y2="104.557" gradientUnits="userSpaceOnUse">
<stop stop-color="#06FDD8"/>
<stop offset="1" stop-color="#0E9AFF"/>
</linearGradient>
</defs>
</svg>
